<svg id="Layer_1" data-name="Layer 1" xmlns="http://www.w3.org/2000/svg" viewBox="0 0 97.21 111.34"><title>smiley-s</title><path d="M540.12,395.31a12.36,12.36,0,0,0-11.52,8.2,23.49,23.49,0,0,1-44,0,12.36,12.36,0,0,0-11.52-8.2h-.56A12.22,12.22,0,0,0,461,411.71a48.44,48.44,0,0,0,91.14,0,12.22,12.22,0,0,0-11.47-16.4Z" transform="translate(-460.29 -332.38)"/><path d="M510.31,380.21a9.15,9.15,0,0,0,4.5-9.45,17.14,17.14,0,0,1,27.79-16.25,9.18,9.18,0,0,0,10.45.71h0a9,9,0,0,0,1.19-14.69,35.34,35.34,0,0,0-57.34,33.52,9,9,0,0,0,13.39,6.17Z" transform="translate(-460.29 -332.38)"/></svg>